<?xml version='1.0' encoding='utf-8'?>
<svg xmlns="http://www.w3.org/2000/svg" width="91.44mm" height="91.44mm" version="1.1" style="shape-rendering:geometricPrecision; text-rendering:geometricPrecision; image-rendering:optimizeQuality; fill-rule:evenodd; clip-rule:evenodd" viewBox="0 0 164.36 164.36"> <defs> <style type="text/css">  .fil0 {fill:#000000} .fil1 {fill:#FFFFFF;fill-rule:nonzero}  </style> </defs> <g id="Camada_x0020_1"> <metadata id="CorelCorpID_0Corel-Layer"/> <polygon class="fil0" points="164.36,164.36 -0,164.36 -0,0 164.36,0 "/> <path class="fil1" d="M54.13 48.3l56.11 0c0.84,0 1.52,0.68 1.52,1.52l0 64.71c0,0.84 -0.68,1.52 -1.52,1.52 -0.42,0 -0.81,-0.17 -1.08,-0.45l-26.97 -23.29 -27.06 23.37c-0.63,0.55 -1.59,0.48 -2.14,-0.15 -0.25,-0.29 -0.37,-0.64 -0.37,-0.99l-0 0 0 -64.71c0,-0.84 0.68,-1.52 1.52,-1.52zm28.05 3.04l-26.53 0 0 59.87 25.53 -22.05c0.56,-0.49 1.41,-0.51 2,-0.01l25.54 22.05 0 -59.87 -26.53 0z"/> </g> </svg>